<svg version="1.2" xmlns="http://www.w3.org/2000/svg" viewBox="0 0 1420 160" width="1420" height="160"><style>.a{fill:#fa7268}.b{fill:#ef5f67}.c{fill:#e34c67}.d{fill:#d53867}.e{fill:#c62368}</style><path class="a" d="m-20 131l34.3 2.7c34.4 2.6 103 8 171.5 3.3 68.5-4.7 136.9-19.3 205.4-24.3 68.5-5 137.1-0.4 205.8 9.1 68.7 9.5 137.3 23.9 206 23.2 68.7-0.7 137.3-16.3 205.8-24 68.5-7.7 136.9-7.3 205.4 0.3 68.5 7.7 137.1 22.7 171.5 30.2l34.3 7.5v-159h-34.3c-34.4 0-103 0-171.5 0-68.5 0-136.9 0-205.4 0q-102.8 0-205.8 0c-68.7 0-137.3 0-206 0q-103.1 0-205.8 0c-68.5 0-136.9 0-205.4 0-68.5 0-137.1 0-171.5 0h-34.3z"/><path class="b" d="m-20 136l34.3-8.3c34.4-8.4 103-25 171.5-34.5 68.5-9.5 136.9-11.9 205.4-4.2 68.5 7.7 137.1 25.3 205.8 28.5 68.7 3.2 137.3-8.2 206-14 68.7-5.8 137.3-6.2 205.8-5.2 68.5 1 136.9 3.4 205.4 9 68.5 5.7 137.1 14.7 171.5 19.2l34.3 4.5v-131h-34.3c-34.4 0-103 0-171.5 0-68.5 0-136.9 0-205.4 0q-102.8 0-205.8 0c-68.7 0-137.3 0-206 0q-103.1 0-205.8 0c-68.5 0-136.9 0-205.4 0-68.5 0-137.1 0-171.5 0h-34.3z"/><path class="c" d="m-20 68l34.3 4.8c34.4 4.9 103 14.5 171.5 20.7 68.5 6.2 136.9 8.8 205.4 7.2 68.5-1.7 137.1-7.7 205.8-9.4 68.7-1.6 137.3 1 206-2.6 68.7-3.7 137.3-13.7 205.8-18.2 68.5-4.5 136.9-3.5 205.4 2.8 68.5 6.4 137.1 18 171.5 23.9l34.3 5.8v-103h-34.3c-34.4 0-103 0-171.5 0-68.5 0-136.9 0-205.4 0q-102.8 0-205.8 0c-68.7 0-137.3 0-206 0q-103.1 0-205.8 0c-68.5 0-136.9 0-205.4 0-68.5 0-137.1 0-171.5 0h-34.3z"/><path class="d" d="m-20 46l34.3 2.8c34.4 2.9 103 8.5 171.5 13.4 68.5 4.8 136.9 8.8 205.4 6.8 68.5-2 137.1-10 205.8-10.2 68.7-0.1 137.3 7.5 206 5.2 68.7-2.3 137.3-14.7 205.8-16.2 68.5-1.5 136.9 7.9 205.4 12 68.5 4.2 137.1 3.2 171.5 2.7l34.3-0.5v-62h-34.3c-34.4 0-103 0-171.5 0-68.5 0-136.9 0-205.4 0q-102.8 0-205.8 0c-68.7 0-137.3 0-206 0q-103.1 0-205.8 0c-68.5 0-136.9 0-205.4 0-68.5 0-137.1 0-171.5 0h-34.3z"/><path class="e" d="m-20 29l34.3-0.5c34.4-0.5 103-1.5 171.5-2.5 68.5-1 136.9-2 205.4 1.5 68.5 3.5 137.1 11.5 205.8 13.2 68.7 1.6 137.3-3 206-6.2 68.7-3.2 137.3-4.8 205.8-3 68.5 1.8 136.9 7.2 205.4 9.2 68.5 2 137.1 0.6 171.5 0l34.3-0.7v-40h-34.3c-34.4 0-103 0-171.5 0-68.5 0-136.9 0-205.4 0q-102.8 0-205.8 0c-68.7 0-137.3 0-206 0q-103.1 0-205.8 0c-68.5 0-136.9 0-205.4 0-68.5 0-137.1 0-171.5 0h-34.3z"/></svg>